G04 #@! TF.GenerationSoftware,KiCad,Pcbnew,(5.0.2)-1*
G04 #@! TF.CreationDate,2021-10-26T14:02:46-04:00*
G04 #@! TF.ProjectId,thermistor_amplifier,74686572-6d69-4737-946f-725f616d706c,rev?*
G04 #@! TF.SameCoordinates,Original*
G04 #@! TF.FileFunction,Soldermask,Top*
G04 #@! TF.FilePolarity,Negative*
%FSLAX46Y46*%
G04 Gerber Fmt 4.6, Leading zero omitted, Abs format (unit mm)*
G04 Created by KiCad (PCBNEW (5.0.2)-1) date 10/26/2021 2:02:46 PM*
%MOMM*%
%LPD*%
G01*
G04 APERTURE LIST*
%ADD10C,0.100000*%
G04 APERTURE END LIST*
D10*
G36*
X117015305Y-97847096D02*
X117124680Y-97892400D01*
X117223118Y-97958175D01*
X117306825Y-98041882D01*
X117372600Y-98140320D01*
X117417904Y-98249695D01*
X117441000Y-98365806D01*
X117441000Y-98484194D01*
X117417904Y-98600305D01*
X117372600Y-98709680D01*
X117306825Y-98808118D01*
X117223118Y-98891825D01*
X117124680Y-98957600D01*
X117015305Y-99002904D01*
X116899194Y-99026000D01*
X116780806Y-99026000D01*
X116664695Y-99002904D01*
X116555320Y-98957600D01*
X116456882Y-98891825D01*
X116373175Y-98808118D01*
X116307400Y-98709680D01*
X116262096Y-98600305D01*
X116239000Y-98484194D01*
X116239000Y-98365806D01*
X116262096Y-98249695D01*
X116307400Y-98140320D01*
X116373175Y-98041882D01*
X116456882Y-97958175D01*
X116555320Y-97892400D01*
X116664695Y-97847096D01*
X116780806Y-97824000D01*
X116899194Y-97824000D01*
X117015305Y-97847096D01*
X117015305Y-97847096D01*
G37*
G36*
X119555305Y-97847096D02*
X119664680Y-97892400D01*
X119763118Y-97958175D01*
X119846825Y-98041882D01*
X119912600Y-98140320D01*
X119957904Y-98249695D01*
X119981000Y-98365806D01*
X119981000Y-98484194D01*
X119957904Y-98600305D01*
X119912600Y-98709680D01*
X119846825Y-98808118D01*
X119763118Y-98891825D01*
X119664680Y-98957600D01*
X119555305Y-99002904D01*
X119439194Y-99026000D01*
X119320806Y-99026000D01*
X119204695Y-99002904D01*
X119095320Y-98957600D01*
X118996882Y-98891825D01*
X118913175Y-98808118D01*
X118847400Y-98709680D01*
X118802096Y-98600305D01*
X118779000Y-98484194D01*
X118779000Y-98365806D01*
X118802096Y-98249695D01*
X118847400Y-98140320D01*
X118913175Y-98041882D01*
X118996882Y-97958175D01*
X119095320Y-97892400D01*
X119204695Y-97847096D01*
X119320806Y-97824000D01*
X119439194Y-97824000D01*
X119555305Y-97847096D01*
X119555305Y-97847096D01*
G37*
G36*
X122095305Y-97847096D02*
X122204680Y-97892400D01*
X122303118Y-97958175D01*
X122386825Y-98041882D01*
X122452600Y-98140320D01*
X122497904Y-98249695D01*
X122521000Y-98365806D01*
X122521000Y-98484194D01*
X122497904Y-98600305D01*
X122452600Y-98709680D01*
X122386825Y-98808118D01*
X122303118Y-98891825D01*
X122204680Y-98957600D01*
X122095305Y-99002904D01*
X121979194Y-99026000D01*
X121860806Y-99026000D01*
X121744695Y-99002904D01*
X121635320Y-98957600D01*
X121536882Y-98891825D01*
X121453175Y-98808118D01*
X121387400Y-98709680D01*
X121342096Y-98600305D01*
X121319000Y-98484194D01*
X121319000Y-98365806D01*
X121342096Y-98249695D01*
X121387400Y-98140320D01*
X121453175Y-98041882D01*
X121536882Y-97958175D01*
X121635320Y-97892400D01*
X121744695Y-97847096D01*
X121860806Y-97824000D01*
X121979194Y-97824000D01*
X122095305Y-97847096D01*
X122095305Y-97847096D01*
G37*
G36*
X117991000Y-95698997D02*
X117993402Y-95723383D01*
X118000515Y-95746832D01*
X118012066Y-95768443D01*
X118027612Y-95787385D01*
X118046554Y-95802931D01*
X118068165Y-95814482D01*
X118091614Y-95821595D01*
X118116000Y-95823997D01*
X118140386Y-95821595D01*
X118163835Y-95814482D01*
X118185446Y-95802931D01*
X118204388Y-95787385D01*
X118219934Y-95768443D01*
X118231485Y-95746832D01*
X118238598Y-95723383D01*
X118273232Y-95549266D01*
X118359996Y-95339798D01*
X118485962Y-95151277D01*
X118646277Y-94990962D01*
X118834798Y-94864996D01*
X119044266Y-94778232D01*
X119266635Y-94734000D01*
X119493365Y-94734000D01*
X119715734Y-94778232D01*
X119925202Y-94864996D01*
X120113723Y-94990962D01*
X120274038Y-95151277D01*
X120400004Y-95339798D01*
X120486768Y-95549266D01*
X120527402Y-95753547D01*
X120534515Y-95776996D01*
X120546066Y-95798607D01*
X120561612Y-95817549D01*
X120580554Y-95833095D01*
X120602165Y-95844646D01*
X120625614Y-95851759D01*
X120650000Y-95854161D01*
X120674386Y-95851759D01*
X120697835Y-95844646D01*
X120719446Y-95833095D01*
X120738388Y-95817549D01*
X120753934Y-95798607D01*
X120765485Y-95776996D01*
X120772598Y-95753547D01*
X120813232Y-95549266D01*
X120899996Y-95339798D01*
X121025962Y-95151277D01*
X121186277Y-94990962D01*
X121374798Y-94864996D01*
X121584266Y-94778232D01*
X121806635Y-94734000D01*
X122033365Y-94734000D01*
X122255734Y-94778232D01*
X122465202Y-94864996D01*
X122653723Y-94990962D01*
X122814038Y-95151277D01*
X122940004Y-95339798D01*
X123026768Y-95549266D01*
X123071000Y-95771635D01*
X123071000Y-95998365D01*
X123026768Y-96220734D01*
X122940004Y-96430202D01*
X122814038Y-96618723D01*
X122653723Y-96779038D01*
X122465202Y-96905004D01*
X122255734Y-96991768D01*
X122033365Y-97036000D01*
X121806635Y-97036000D01*
X121584266Y-96991768D01*
X121374798Y-96905004D01*
X121186277Y-96779038D01*
X121025962Y-96618723D01*
X120899996Y-96430202D01*
X120813232Y-96220734D01*
X120772598Y-96016453D01*
X120765485Y-95993004D01*
X120753934Y-95971393D01*
X120738388Y-95952451D01*
X120719446Y-95936905D01*
X120697835Y-95925354D01*
X120674386Y-95918241D01*
X120650000Y-95915839D01*
X120625614Y-95918241D01*
X120602165Y-95925354D01*
X120580554Y-95936905D01*
X120561612Y-95952451D01*
X120546066Y-95971393D01*
X120534515Y-95993004D01*
X120527402Y-96016453D01*
X120486768Y-96220734D01*
X120400004Y-96430202D01*
X120274038Y-96618723D01*
X120113723Y-96779038D01*
X119925202Y-96905004D01*
X119715734Y-96991768D01*
X119493365Y-97036000D01*
X119266635Y-97036000D01*
X119044266Y-96991768D01*
X118834798Y-96905004D01*
X118646277Y-96779038D01*
X118485962Y-96618723D01*
X118359996Y-96430202D01*
X118273232Y-96220734D01*
X118238598Y-96046617D01*
X118231485Y-96023168D01*
X118219934Y-96001557D01*
X118204388Y-95982615D01*
X118185446Y-95967069D01*
X118163835Y-95955518D01*
X118140386Y-95948405D01*
X118116000Y-95946003D01*
X118091614Y-95948405D01*
X118068165Y-95955518D01*
X118046554Y-95967069D01*
X118027612Y-95982615D01*
X118012066Y-96001557D01*
X118000515Y-96023168D01*
X117993402Y-96046617D01*
X117991000Y-96071003D01*
X117991000Y-97036000D01*
X115689000Y-97036000D01*
X115689000Y-94734000D01*
X117991000Y-94734000D01*
X117991000Y-95698997D01*
X117991000Y-95698997D01*
G37*
G36*
X152100734Y-94778232D02*
X152310202Y-94864996D01*
X152498723Y-94990962D01*
X152659038Y-95151277D01*
X152785004Y-95339798D01*
X152871768Y-95549266D01*
X152916000Y-95771635D01*
X152916000Y-95998365D01*
X152871768Y-96220734D01*
X152785004Y-96430202D01*
X152659038Y-96618723D01*
X152498723Y-96779038D01*
X152310202Y-96905004D01*
X152100734Y-96991768D01*
X151878365Y-97036000D01*
X151651635Y-97036000D01*
X151429266Y-96991768D01*
X151219798Y-96905004D01*
X151031277Y-96779038D01*
X150870962Y-96618723D01*
X150744996Y-96430202D01*
X150658232Y-96220734D01*
X150614000Y-95998365D01*
X150614000Y-95771635D01*
X150658232Y-95549266D01*
X150744996Y-95339798D01*
X150870962Y-95151277D01*
X151031277Y-94990962D01*
X151219798Y-94864996D01*
X151429266Y-94778232D01*
X151651635Y-94734000D01*
X151878365Y-94734000D01*
X152100734Y-94778232D01*
X152100734Y-94778232D01*
G37*
G36*
X94950734Y-94778232D02*
X95160202Y-94864996D01*
X95348723Y-94990962D01*
X95509038Y-95151277D01*
X95635004Y-95339798D01*
X95721768Y-95549266D01*
X95766000Y-95771635D01*
X95766000Y-95998365D01*
X95721768Y-96220734D01*
X95635004Y-96430202D01*
X95509038Y-96618723D01*
X95348723Y-96779038D01*
X95160202Y-96905004D01*
X94950734Y-96991768D01*
X94728365Y-97036000D01*
X94501635Y-97036000D01*
X94279266Y-96991768D01*
X94069798Y-96905004D01*
X93881277Y-96779038D01*
X93720962Y-96618723D01*
X93594996Y-96430202D01*
X93508232Y-96220734D01*
X93464000Y-95998365D01*
X93464000Y-95771635D01*
X93508232Y-95549266D01*
X93594996Y-95339798D01*
X93720962Y-95151277D01*
X93881277Y-94990962D01*
X94069798Y-94864996D01*
X94279266Y-94778232D01*
X94501635Y-94734000D01*
X94728365Y-94734000D01*
X94950734Y-94778232D01*
X94950734Y-94778232D01*
G37*
G36*
X109995562Y-90045681D02*
X110030477Y-90056273D01*
X110062665Y-90073478D01*
X110090873Y-90096627D01*
X110114022Y-90124835D01*
X110131227Y-90157023D01*
X110141819Y-90191938D01*
X110146000Y-90234395D01*
X110146000Y-91375605D01*
X110141819Y-91418062D01*
X110131227Y-91452977D01*
X110114022Y-91485165D01*
X110090873Y-91513373D01*
X110062665Y-91536522D01*
X110030477Y-91553727D01*
X109995562Y-91564319D01*
X109953105Y-91568500D01*
X108486895Y-91568500D01*
X108444438Y-91564319D01*
X108409523Y-91553727D01*
X108377335Y-91536522D01*
X108349127Y-91513373D01*
X108325978Y-91485165D01*
X108308773Y-91452977D01*
X108298181Y-91418062D01*
X108294000Y-91375605D01*
X108294000Y-90234395D01*
X108298181Y-90191938D01*
X108308773Y-90157023D01*
X108325978Y-90124835D01*
X108349127Y-90096627D01*
X108377335Y-90073478D01*
X108409523Y-90056273D01*
X108444438Y-90045681D01*
X108486895Y-90041500D01*
X109953105Y-90041500D01*
X109995562Y-90045681D01*
X109995562Y-90045681D01*
G37*
G36*
X109995562Y-87070681D02*
X110030477Y-87081273D01*
X110062665Y-87098478D01*
X110090873Y-87121627D01*
X110114022Y-87149835D01*
X110131227Y-87182023D01*
X110141819Y-87216938D01*
X110146000Y-87259395D01*
X110146000Y-88400605D01*
X110141819Y-88443062D01*
X110131227Y-88477977D01*
X110114022Y-88510165D01*
X110090873Y-88538373D01*
X110062665Y-88561522D01*
X110030477Y-88578727D01*
X109995562Y-88589319D01*
X109953105Y-88593500D01*
X108486895Y-88593500D01*
X108444438Y-88589319D01*
X108409523Y-88578727D01*
X108377335Y-88561522D01*
X108349127Y-88538373D01*
X108325978Y-88510165D01*
X108308773Y-88477977D01*
X108298181Y-88443062D01*
X108294000Y-88400605D01*
X108294000Y-87259395D01*
X108298181Y-87216938D01*
X108308773Y-87182023D01*
X108325978Y-87149835D01*
X108349127Y-87121627D01*
X108377335Y-87098478D01*
X108409523Y-87081273D01*
X108444438Y-87070681D01*
X108486895Y-87066500D01*
X109953105Y-87066500D01*
X109995562Y-87070681D01*
X109995562Y-87070681D01*
G37*
G36*
X120428062Y-86708181D02*
X120462977Y-86718773D01*
X120495165Y-86735978D01*
X120523373Y-86759127D01*
X120546522Y-86787335D01*
X120563727Y-86819523D01*
X120574319Y-86854438D01*
X120578500Y-86896895D01*
X120578500Y-88363105D01*
X120574319Y-88405562D01*
X120563727Y-88440477D01*
X120546522Y-88472665D01*
X120523373Y-88500873D01*
X120495165Y-88524022D01*
X120462977Y-88541227D01*
X120428062Y-88551819D01*
X120385605Y-88556000D01*
X119244395Y-88556000D01*
X119201938Y-88551819D01*
X119167023Y-88541227D01*
X119134835Y-88524022D01*
X119106627Y-88500873D01*
X119083478Y-88472665D01*
X119066273Y-88440477D01*
X119055681Y-88405562D01*
X119051500Y-88363105D01*
X119051500Y-86896895D01*
X119055681Y-86854438D01*
X119066273Y-86819523D01*
X119083478Y-86787335D01*
X119106627Y-86759127D01*
X119134835Y-86735978D01*
X119167023Y-86718773D01*
X119201938Y-86708181D01*
X119244395Y-86704000D01*
X120385605Y-86704000D01*
X120428062Y-86708181D01*
X120428062Y-86708181D01*
G37*
G36*
X117453062Y-86708181D02*
X117487977Y-86718773D01*
X117520165Y-86735978D01*
X117548373Y-86759127D01*
X117571522Y-86787335D01*
X117588727Y-86819523D01*
X117599319Y-86854438D01*
X117603500Y-86896895D01*
X117603500Y-88363105D01*
X117599319Y-88405562D01*
X117588727Y-88440477D01*
X117571522Y-88472665D01*
X117548373Y-88500873D01*
X117520165Y-88524022D01*
X117487977Y-88541227D01*
X117453062Y-88551819D01*
X117410605Y-88556000D01*
X116269395Y-88556000D01*
X116226938Y-88551819D01*
X116192023Y-88541227D01*
X116159835Y-88524022D01*
X116131627Y-88500873D01*
X116108478Y-88472665D01*
X116091273Y-88440477D01*
X116080681Y-88405562D01*
X116076500Y-88363105D01*
X116076500Y-86896895D01*
X116080681Y-86854438D01*
X116091273Y-86819523D01*
X116108478Y-86787335D01*
X116131627Y-86759127D01*
X116159835Y-86735978D01*
X116192023Y-86718773D01*
X116226938Y-86708181D01*
X116269395Y-86704000D01*
X117410605Y-86704000D01*
X117453062Y-86708181D01*
X117453062Y-86708181D01*
G37*
G36*
X97915589Y-86868876D02*
X98014893Y-86888629D01*
X98155206Y-86946748D01*
X98281484Y-87031125D01*
X98388875Y-87138516D01*
X98473252Y-87264794D01*
X98531371Y-87405107D01*
X98561000Y-87554063D01*
X98561000Y-87705937D01*
X98531371Y-87854893D01*
X98473252Y-87995206D01*
X98388875Y-88121484D01*
X98281484Y-88228875D01*
X98155206Y-88313252D01*
X98014893Y-88371371D01*
X97918101Y-88390624D01*
X97865938Y-88401000D01*
X97714062Y-88401000D01*
X97661899Y-88390624D01*
X97565107Y-88371371D01*
X97424794Y-88313252D01*
X97298516Y-88228875D01*
X97191125Y-88121484D01*
X97106748Y-87995206D01*
X97048629Y-87854893D01*
X97019000Y-87705937D01*
X97019000Y-87554063D01*
X97048629Y-87405107D01*
X97106748Y-87264794D01*
X97191125Y-87138516D01*
X97298516Y-87031125D01*
X97424794Y-86946748D01*
X97565107Y-86888629D01*
X97664411Y-86868876D01*
X97714062Y-86859000D01*
X97865938Y-86859000D01*
X97915589Y-86868876D01*
X97915589Y-86868876D01*
G37*
G36*
X134857142Y-85578242D02*
X135005102Y-85639530D01*
X135138258Y-85728502D01*
X135251498Y-85841742D01*
X135340470Y-85974898D01*
X135401758Y-86122858D01*
X135433000Y-86279925D01*
X135433000Y-86440075D01*
X135401758Y-86597142D01*
X135357495Y-86704000D01*
X135349049Y-86724392D01*
X135340470Y-86745102D01*
X135331099Y-86759127D01*
X135288380Y-86823061D01*
X135251498Y-86878258D01*
X135138258Y-86991498D01*
X135005102Y-87080470D01*
X135005101Y-87080471D01*
X135005100Y-87080471D01*
X134989598Y-87086892D01*
X134857142Y-87141758D01*
X134700075Y-87173000D01*
X134539925Y-87173000D01*
X134382858Y-87141758D01*
X134250402Y-87086892D01*
X134234900Y-87080471D01*
X134234899Y-87080471D01*
X134234898Y-87080470D01*
X134101742Y-86991498D01*
X133988502Y-86878258D01*
X133951621Y-86823061D01*
X133908901Y-86759127D01*
X133899530Y-86745102D01*
X133890952Y-86724392D01*
X133882505Y-86704000D01*
X133838242Y-86597142D01*
X133807000Y-86440075D01*
X133807000Y-86279925D01*
X133838242Y-86122858D01*
X133899530Y-85974898D01*
X133988502Y-85841742D01*
X134101742Y-85728502D01*
X134234898Y-85639530D01*
X134382858Y-85578242D01*
X134539925Y-85547000D01*
X134700075Y-85547000D01*
X134857142Y-85578242D01*
X134857142Y-85578242D01*
G37*
G36*
X100455589Y-84328876D02*
X100554893Y-84348629D01*
X100695206Y-84406748D01*
X100821484Y-84491125D01*
X100928875Y-84598516D01*
X101013252Y-84724794D01*
X101071371Y-84865107D01*
X101078200Y-84899439D01*
X101097827Y-84998108D01*
X101101000Y-85014063D01*
X101101000Y-85165937D01*
X101071371Y-85314893D01*
X101013252Y-85455206D01*
X100928875Y-85581484D01*
X100821484Y-85688875D01*
X100695206Y-85773252D01*
X100554893Y-85831371D01*
X100455589Y-85851124D01*
X100405938Y-85861000D01*
X100254062Y-85861000D01*
X100204411Y-85851124D01*
X100105107Y-85831371D01*
X99964794Y-85773252D01*
X99838516Y-85688875D01*
X99731125Y-85581484D01*
X99646748Y-85455206D01*
X99588629Y-85314893D01*
X99559000Y-85165937D01*
X99559000Y-85014063D01*
X99562174Y-84998108D01*
X99581800Y-84899439D01*
X99588629Y-84865107D01*
X99646748Y-84724794D01*
X99731125Y-84598516D01*
X99838516Y-84491125D01*
X99964794Y-84406748D01*
X100105107Y-84348629D01*
X100204411Y-84328876D01*
X100254062Y-84319000D01*
X100405938Y-84319000D01*
X100455589Y-84328876D01*
X100455589Y-84328876D01*
G37*
G36*
X123965562Y-83495681D02*
X124000477Y-83506273D01*
X124032665Y-83523478D01*
X124060873Y-83546627D01*
X124084022Y-83574835D01*
X124101227Y-83607023D01*
X124111819Y-83641938D01*
X124116000Y-83684395D01*
X124116000Y-84825605D01*
X124111819Y-84868062D01*
X124101227Y-84902977D01*
X124084022Y-84935165D01*
X124060873Y-84963373D01*
X124032665Y-84986522D01*
X124000477Y-85003727D01*
X123965562Y-85014319D01*
X123923105Y-85018500D01*
X122456895Y-85018500D01*
X122414438Y-85014319D01*
X122379523Y-85003727D01*
X122347335Y-84986522D01*
X122319127Y-84963373D01*
X122295978Y-84935165D01*
X122278773Y-84902977D01*
X122268181Y-84868062D01*
X122264000Y-84825605D01*
X122264000Y-83684395D01*
X122268181Y-83641938D01*
X122278773Y-83607023D01*
X122295978Y-83574835D01*
X122319127Y-83546627D01*
X122347335Y-83523478D01*
X122379523Y-83506273D01*
X122414438Y-83495681D01*
X122456895Y-83491500D01*
X123923105Y-83491500D01*
X123965562Y-83495681D01*
X123965562Y-83495681D01*
G37*
G36*
X134857142Y-83038242D02*
X135005102Y-83099530D01*
X135138258Y-83188502D01*
X135251498Y-83301742D01*
X135340470Y-83434898D01*
X135401758Y-83582858D01*
X135433000Y-83739925D01*
X135433000Y-83900075D01*
X135401758Y-84057142D01*
X135340470Y-84205102D01*
X135251498Y-84338258D01*
X135138258Y-84451498D01*
X135005102Y-84540470D01*
X134857142Y-84601758D01*
X134700075Y-84633000D01*
X134539925Y-84633000D01*
X134382858Y-84601758D01*
X134234898Y-84540470D01*
X134101742Y-84451498D01*
X133988502Y-84338258D01*
X133899530Y-84205102D01*
X133838242Y-84057142D01*
X133807000Y-83900075D01*
X133807000Y-83739925D01*
X133838242Y-83582858D01*
X133899530Y-83434898D01*
X133988502Y-83301742D01*
X134101742Y-83188502D01*
X134234898Y-83099530D01*
X134382858Y-83038242D01*
X134539925Y-83007000D01*
X134700075Y-83007000D01*
X134857142Y-83038242D01*
X134857142Y-83038242D01*
G37*
G36*
X97915589Y-81788876D02*
X98014893Y-81808629D01*
X98155206Y-81866748D01*
X98281484Y-81951125D01*
X98388875Y-82058516D01*
X98473252Y-82184794D01*
X98531371Y-82325107D01*
X98561000Y-82474063D01*
X98561000Y-82625937D01*
X98531371Y-82774893D01*
X98473252Y-82915206D01*
X98388875Y-83041484D01*
X98281484Y-83148875D01*
X98155206Y-83233252D01*
X98014893Y-83291371D01*
X97915589Y-83311124D01*
X97865938Y-83321000D01*
X97714062Y-83321000D01*
X97664411Y-83311124D01*
X97565107Y-83291371D01*
X97424794Y-83233252D01*
X97298516Y-83148875D01*
X97191125Y-83041484D01*
X97106748Y-82915206D01*
X97048629Y-82774893D01*
X97019000Y-82625937D01*
X97019000Y-82474063D01*
X97048629Y-82325107D01*
X97106748Y-82184794D01*
X97191125Y-82058516D01*
X97298516Y-81951125D01*
X97424794Y-81866748D01*
X97565107Y-81808629D01*
X97664411Y-81788876D01*
X97714062Y-81779000D01*
X97865938Y-81779000D01*
X97915589Y-81788876D01*
X97915589Y-81788876D01*
G37*
G36*
X114466821Y-80441313D02*
X114466824Y-80441314D01*
X114466825Y-80441314D01*
X114627239Y-80489975D01*
X114627241Y-80489976D01*
X114627244Y-80489977D01*
X114775078Y-80568995D01*
X114904659Y-80675341D01*
X115011005Y-80804922D01*
X115090023Y-80952756D01*
X115090024Y-80952759D01*
X115090025Y-80952761D01*
X115138686Y-81113175D01*
X115138687Y-81113179D01*
X115155117Y-81280000D01*
X115138687Y-81446821D01*
X115138686Y-81446824D01*
X115138686Y-81446825D01*
X115117356Y-81517142D01*
X115090023Y-81607244D01*
X115011005Y-81755078D01*
X114904659Y-81884659D01*
X114775078Y-81991005D01*
X114627244Y-82070023D01*
X114627241Y-82070024D01*
X114627239Y-82070025D01*
X114466825Y-82118686D01*
X114466824Y-82118686D01*
X114466821Y-82118687D01*
X114341804Y-82131000D01*
X114258196Y-82131000D01*
X114133179Y-82118687D01*
X114133176Y-82118686D01*
X114133175Y-82118686D01*
X113972761Y-82070025D01*
X113972759Y-82070024D01*
X113972756Y-82070023D01*
X113824922Y-81991005D01*
X113695341Y-81884659D01*
X113588995Y-81755078D01*
X113509977Y-81607244D01*
X113482645Y-81517142D01*
X113461314Y-81446825D01*
X113461314Y-81446824D01*
X113461313Y-81446821D01*
X113444883Y-81280000D01*
X113461313Y-81113179D01*
X113461314Y-81113175D01*
X113509975Y-80952761D01*
X113509976Y-80952759D01*
X113509977Y-80952756D01*
X113588995Y-80804922D01*
X113695341Y-80675341D01*
X113824922Y-80568995D01*
X113972756Y-80489977D01*
X113972759Y-80489976D01*
X113972761Y-80489975D01*
X114133175Y-80441314D01*
X114133176Y-80441314D01*
X114133179Y-80441313D01*
X114258196Y-80429000D01*
X114341804Y-80429000D01*
X114466821Y-80441313D01*
X114466821Y-80441313D01*
G37*
G36*
X112611000Y-82131000D02*
X110909000Y-82131000D01*
X110909000Y-80429000D01*
X112611000Y-80429000D01*
X112611000Y-82131000D01*
X112611000Y-82131000D01*
G37*
G36*
X117006821Y-80441313D02*
X117006824Y-80441314D01*
X117006825Y-80441314D01*
X117167239Y-80489975D01*
X117167241Y-80489976D01*
X117167244Y-80489977D01*
X117315078Y-80568995D01*
X117444659Y-80675341D01*
X117551005Y-80804922D01*
X117630023Y-80952756D01*
X117630024Y-80952759D01*
X117630025Y-80952761D01*
X117678686Y-81113175D01*
X117678687Y-81113179D01*
X117695117Y-81280000D01*
X117678687Y-81446821D01*
X117678686Y-81446824D01*
X117678686Y-81446825D01*
X117657356Y-81517142D01*
X117630023Y-81607244D01*
X117551005Y-81755078D01*
X117444659Y-81884659D01*
X117315078Y-81991005D01*
X117167244Y-82070023D01*
X117167241Y-82070024D01*
X117167239Y-82070025D01*
X117006825Y-82118686D01*
X117006824Y-82118686D01*
X117006821Y-82118687D01*
X116881804Y-82131000D01*
X116798196Y-82131000D01*
X116673179Y-82118687D01*
X116673176Y-82118686D01*
X116673175Y-82118686D01*
X116512761Y-82070025D01*
X116512759Y-82070024D01*
X116512756Y-82070023D01*
X116364922Y-81991005D01*
X116235341Y-81884659D01*
X116128995Y-81755078D01*
X116049977Y-81607244D01*
X116022645Y-81517142D01*
X116001314Y-81446825D01*
X116001314Y-81446824D01*
X116001313Y-81446821D01*
X115984883Y-81280000D01*
X116001313Y-81113179D01*
X116001314Y-81113175D01*
X116049975Y-80952761D01*
X116049976Y-80952759D01*
X116049977Y-80952756D01*
X116128995Y-80804922D01*
X116235341Y-80675341D01*
X116364922Y-80568995D01*
X116512756Y-80489977D01*
X116512759Y-80489976D01*
X116512761Y-80489975D01*
X116673175Y-80441314D01*
X116673176Y-80441314D01*
X116673179Y-80441313D01*
X116798196Y-80429000D01*
X116881804Y-80429000D01*
X117006821Y-80441313D01*
X117006821Y-80441313D01*
G37*
G36*
X119546821Y-80441313D02*
X119546824Y-80441314D01*
X119546825Y-80441314D01*
X119707239Y-80489975D01*
X119707241Y-80489976D01*
X119707244Y-80489977D01*
X119855078Y-80568995D01*
X119984659Y-80675341D01*
X120091005Y-80804922D01*
X120170023Y-80952756D01*
X120170024Y-80952759D01*
X120170025Y-80952761D01*
X120218686Y-81113175D01*
X120218687Y-81113179D01*
X120235117Y-81280000D01*
X120218687Y-81446821D01*
X120218686Y-81446824D01*
X120218686Y-81446825D01*
X120197356Y-81517142D01*
X120170023Y-81607244D01*
X120091005Y-81755078D01*
X119984659Y-81884659D01*
X119855078Y-81991005D01*
X119707244Y-82070023D01*
X119707241Y-82070024D01*
X119707239Y-82070025D01*
X119546825Y-82118686D01*
X119546824Y-82118686D01*
X119546821Y-82118687D01*
X119421804Y-82131000D01*
X119338196Y-82131000D01*
X119213179Y-82118687D01*
X119213176Y-82118686D01*
X119213175Y-82118686D01*
X119052761Y-82070025D01*
X119052759Y-82070024D01*
X119052756Y-82070023D01*
X118904922Y-81991005D01*
X118775341Y-81884659D01*
X118668995Y-81755078D01*
X118589977Y-81607244D01*
X118562645Y-81517142D01*
X118541314Y-81446825D01*
X118541314Y-81446824D01*
X118541313Y-81446821D01*
X118524883Y-81280000D01*
X118541313Y-81113179D01*
X118541314Y-81113175D01*
X118589975Y-80952761D01*
X118589976Y-80952759D01*
X118589977Y-80952756D01*
X118668995Y-80804922D01*
X118775341Y-80675341D01*
X118904922Y-80568995D01*
X119052756Y-80489977D01*
X119052759Y-80489976D01*
X119052761Y-80489975D01*
X119213175Y-80441314D01*
X119213176Y-80441314D01*
X119213179Y-80441313D01*
X119338196Y-80429000D01*
X119421804Y-80429000D01*
X119546821Y-80441313D01*
X119546821Y-80441313D01*
G37*
G36*
X134857142Y-80498242D02*
X135005102Y-80559530D01*
X135023206Y-80571627D01*
X135118891Y-80635561D01*
X135138258Y-80648502D01*
X135251498Y-80761742D01*
X135340470Y-80894898D01*
X135401758Y-81042858D01*
X135433000Y-81199925D01*
X135433000Y-81360075D01*
X135401758Y-81517142D01*
X135364438Y-81607239D01*
X135340471Y-81665100D01*
X135251499Y-81798257D01*
X135138257Y-81911499D01*
X135078952Y-81951125D01*
X135005102Y-82000470D01*
X134857142Y-82061758D01*
X134700075Y-82093000D01*
X134539925Y-82093000D01*
X134382858Y-82061758D01*
X134234898Y-82000470D01*
X134161048Y-81951125D01*
X134101743Y-81911499D01*
X133988501Y-81798257D01*
X133899529Y-81665100D01*
X133875562Y-81607239D01*
X133838242Y-81517142D01*
X133807000Y-81360075D01*
X133807000Y-81199925D01*
X133838242Y-81042858D01*
X133899530Y-80894898D01*
X133988502Y-80761742D01*
X134101742Y-80648502D01*
X134121110Y-80635561D01*
X134216794Y-80571627D01*
X134234898Y-80559530D01*
X134382858Y-80498242D01*
X134539925Y-80467000D01*
X134700075Y-80467000D01*
X134857142Y-80498242D01*
X134857142Y-80498242D01*
G37*
G36*
X123965562Y-80520681D02*
X124000477Y-80531273D01*
X124032665Y-80548478D01*
X124060873Y-80571627D01*
X124084022Y-80599835D01*
X124101227Y-80632023D01*
X124111819Y-80666938D01*
X124116000Y-80709395D01*
X124116000Y-81850605D01*
X124111819Y-81893062D01*
X124101227Y-81927977D01*
X124084022Y-81960165D01*
X124060873Y-81988373D01*
X124032665Y-82011522D01*
X124000477Y-82028727D01*
X123965562Y-82039319D01*
X123923105Y-82043500D01*
X122456895Y-82043500D01*
X122414438Y-82039319D01*
X122379523Y-82028727D01*
X122347335Y-82011522D01*
X122319127Y-81988373D01*
X122295978Y-81960165D01*
X122278773Y-81927977D01*
X122268181Y-81893062D01*
X122264000Y-81850605D01*
X122264000Y-80709395D01*
X122268181Y-80666938D01*
X122278773Y-80632023D01*
X122295978Y-80599835D01*
X122319127Y-80571627D01*
X122347335Y-80548478D01*
X122379523Y-80531273D01*
X122414438Y-80520681D01*
X122456895Y-80516500D01*
X123923105Y-80516500D01*
X123965562Y-80520681D01*
X123965562Y-80520681D01*
G37*
G36*
X108090562Y-78198181D02*
X108125477Y-78208773D01*
X108157665Y-78225978D01*
X108185873Y-78249127D01*
X108209022Y-78277335D01*
X108226227Y-78309523D01*
X108236819Y-78344438D01*
X108241000Y-78386895D01*
X108241000Y-79528105D01*
X108236819Y-79570562D01*
X108226227Y-79605477D01*
X108209022Y-79637665D01*
X108185873Y-79665873D01*
X108157665Y-79689022D01*
X108125477Y-79706227D01*
X108090562Y-79716819D01*
X108048105Y-79721000D01*
X106581895Y-79721000D01*
X106539438Y-79716819D01*
X106504523Y-79706227D01*
X106472335Y-79689022D01*
X106444127Y-79665873D01*
X106420978Y-79637665D01*
X106403773Y-79605477D01*
X106393181Y-79570562D01*
X106389000Y-79528105D01*
X106389000Y-78386895D01*
X106393181Y-78344438D01*
X106403773Y-78309523D01*
X106420978Y-78277335D01*
X106444127Y-78249127D01*
X106472335Y-78225978D01*
X106504523Y-78208773D01*
X106539438Y-78198181D01*
X106581895Y-78194000D01*
X108048105Y-78194000D01*
X108090562Y-78198181D01*
X108090562Y-78198181D01*
G37*
G36*
X152100734Y-73823232D02*
X152310202Y-73909996D01*
X152498723Y-74035962D01*
X152659038Y-74196277D01*
X152785004Y-74384798D01*
X152871768Y-74594266D01*
X152916000Y-74816635D01*
X152916000Y-75043365D01*
X152871768Y-75265734D01*
X152785004Y-75475202D01*
X152659038Y-75663723D01*
X152498723Y-75824038D01*
X152310202Y-75950004D01*
X152100734Y-76036768D01*
X151926617Y-76071402D01*
X151903168Y-76078515D01*
X151881557Y-76090066D01*
X151862615Y-76105612D01*
X151847069Y-76124554D01*
X151835518Y-76146165D01*
X151828405Y-76169614D01*
X151826003Y-76194000D01*
X151828405Y-76218386D01*
X151835518Y-76241835D01*
X151847069Y-76263446D01*
X151862615Y-76282388D01*
X151881557Y-76297934D01*
X151903168Y-76309485D01*
X151926617Y-76316598D01*
X151951003Y-76319000D01*
X152916000Y-76319000D01*
X152916000Y-78621000D01*
X150614000Y-78621000D01*
X150614000Y-76319000D01*
X151578997Y-76319000D01*
X151603383Y-76316598D01*
X151626832Y-76309485D01*
X151648443Y-76297934D01*
X151667385Y-76282388D01*
X151682931Y-76263446D01*
X151694482Y-76241835D01*
X151701595Y-76218386D01*
X151703997Y-76194000D01*
X151701595Y-76169614D01*
X151694482Y-76146165D01*
X151682931Y-76124554D01*
X151667385Y-76105612D01*
X151648443Y-76090066D01*
X151626832Y-76078515D01*
X151603383Y-76071402D01*
X151429266Y-76036768D01*
X151219798Y-75950004D01*
X151031277Y-75824038D01*
X150870962Y-75663723D01*
X150744996Y-75475202D01*
X150658232Y-75265734D01*
X150614000Y-75043365D01*
X150614000Y-74816635D01*
X150658232Y-74594266D01*
X150744996Y-74384798D01*
X150870962Y-74196277D01*
X151031277Y-74035962D01*
X151219798Y-73909996D01*
X151429266Y-73823232D01*
X151651635Y-73779000D01*
X151878365Y-73779000D01*
X152100734Y-73823232D01*
X152100734Y-73823232D01*
G37*
G36*
X146190562Y-76928181D02*
X146225477Y-76938773D01*
X146257665Y-76955978D01*
X146285873Y-76979127D01*
X146309022Y-77007335D01*
X146326227Y-77039523D01*
X146336819Y-77074438D01*
X146341000Y-77116895D01*
X146341000Y-78258105D01*
X146336819Y-78300562D01*
X146326227Y-78335477D01*
X146309022Y-78367665D01*
X146285873Y-78395873D01*
X146257665Y-78419022D01*
X146225477Y-78436227D01*
X146190562Y-78446819D01*
X146148105Y-78451000D01*
X144681895Y-78451000D01*
X144639438Y-78446819D01*
X144604523Y-78436227D01*
X144572335Y-78419022D01*
X144544127Y-78395873D01*
X144520978Y-78367665D01*
X144503773Y-78335477D01*
X144493181Y-78300562D01*
X144489000Y-78258105D01*
X144489000Y-77116895D01*
X144493181Y-77074438D01*
X144503773Y-77039523D01*
X144520978Y-77007335D01*
X144544127Y-76979127D01*
X144572335Y-76955978D01*
X144604523Y-76938773D01*
X144639438Y-76928181D01*
X144681895Y-76924000D01*
X146148105Y-76924000D01*
X146190562Y-76928181D01*
X146190562Y-76928181D01*
G37*
G36*
X154480305Y-76892096D02*
X154589680Y-76937400D01*
X154688118Y-77003175D01*
X154771825Y-77086882D01*
X154837600Y-77185320D01*
X154882904Y-77294695D01*
X154906000Y-77410806D01*
X154906000Y-77529194D01*
X154882904Y-77645305D01*
X154837600Y-77754680D01*
X154771825Y-77853118D01*
X154688118Y-77936825D01*
X154589680Y-78002600D01*
X154480305Y-78047904D01*
X154364194Y-78071000D01*
X154245806Y-78071000D01*
X154129695Y-78047904D01*
X154020320Y-78002600D01*
X153921882Y-77936825D01*
X153838175Y-77853118D01*
X153772400Y-77754680D01*
X153727096Y-77645305D01*
X153704000Y-77529194D01*
X153704000Y-77410806D01*
X153727096Y-77294695D01*
X153772400Y-77185320D01*
X153838175Y-77086882D01*
X153921882Y-77003175D01*
X154020320Y-76937400D01*
X154129695Y-76892096D01*
X154245806Y-76869000D01*
X154364194Y-76869000D01*
X154480305Y-76892096D01*
X154480305Y-76892096D01*
G37*
G36*
X101105562Y-75658181D02*
X101140477Y-75668773D01*
X101172665Y-75685978D01*
X101200873Y-75709127D01*
X101224022Y-75737335D01*
X101241227Y-75769523D01*
X101251819Y-75804438D01*
X101256000Y-75846895D01*
X101256000Y-76988105D01*
X101251819Y-77030562D01*
X101241227Y-77065477D01*
X101224022Y-77097665D01*
X101200873Y-77125873D01*
X101172665Y-77149022D01*
X101140477Y-77166227D01*
X101105562Y-77176819D01*
X101063105Y-77181000D01*
X99596895Y-77181000D01*
X99554438Y-77176819D01*
X99519523Y-77166227D01*
X99487335Y-77149022D01*
X99459127Y-77125873D01*
X99435978Y-77097665D01*
X99418773Y-77065477D01*
X99408181Y-77030562D01*
X99404000Y-76988105D01*
X99404000Y-75846895D01*
X99408181Y-75804438D01*
X99418773Y-75769523D01*
X99435978Y-75737335D01*
X99459127Y-75709127D01*
X99487335Y-75685978D01*
X99519523Y-75668773D01*
X99554438Y-75658181D01*
X99596895Y-75654000D01*
X101063105Y-75654000D01*
X101105562Y-75658181D01*
X101105562Y-75658181D01*
G37*
G36*
X108090562Y-75223181D02*
X108125477Y-75233773D01*
X108157665Y-75250978D01*
X108185873Y-75274127D01*
X108209022Y-75302335D01*
X108226227Y-75334523D01*
X108236819Y-75369438D01*
X108241000Y-75411895D01*
X108241000Y-76553105D01*
X108236819Y-76595562D01*
X108226227Y-76630477D01*
X108209022Y-76662665D01*
X108185873Y-76690873D01*
X108157665Y-76714022D01*
X108125477Y-76731227D01*
X108090562Y-76741819D01*
X108048105Y-76746000D01*
X106581895Y-76746000D01*
X106539438Y-76741819D01*
X106504523Y-76731227D01*
X106472335Y-76714022D01*
X106444127Y-76690873D01*
X106420978Y-76662665D01*
X106403773Y-76630477D01*
X106393181Y-76595562D01*
X106389000Y-76553105D01*
X106389000Y-75411895D01*
X106393181Y-75369438D01*
X106403773Y-75334523D01*
X106420978Y-75302335D01*
X106444127Y-75274127D01*
X106472335Y-75250978D01*
X106504523Y-75233773D01*
X106539438Y-75223181D01*
X106581895Y-75219000D01*
X108048105Y-75219000D01*
X108090562Y-75223181D01*
X108090562Y-75223181D01*
G37*
G36*
X154480305Y-74352096D02*
X154589680Y-74397400D01*
X154688118Y-74463175D01*
X154771825Y-74546882D01*
X154837600Y-74645320D01*
X154882904Y-74754695D01*
X154906000Y-74870806D01*
X154906000Y-74989194D01*
X154882904Y-75105305D01*
X154837600Y-75214680D01*
X154771825Y-75313118D01*
X154688118Y-75396825D01*
X154589680Y-75462600D01*
X154480305Y-75507904D01*
X154364194Y-75531000D01*
X154245806Y-75531000D01*
X154129695Y-75507904D01*
X154020320Y-75462600D01*
X153921882Y-75396825D01*
X153838175Y-75313118D01*
X153772400Y-75214680D01*
X153727096Y-75105305D01*
X153704000Y-74989194D01*
X153704000Y-74870806D01*
X153727096Y-74754695D01*
X153772400Y-74645320D01*
X153838175Y-74546882D01*
X153921882Y-74463175D01*
X154020320Y-74397400D01*
X154129695Y-74352096D01*
X154245806Y-74329000D01*
X154364194Y-74329000D01*
X154480305Y-74352096D01*
X154480305Y-74352096D01*
G37*
G36*
X146190562Y-73953181D02*
X146225477Y-73963773D01*
X146257665Y-73980978D01*
X146285873Y-74004127D01*
X146309022Y-74032335D01*
X146326227Y-74064523D01*
X146336819Y-74099438D01*
X146341000Y-74141895D01*
X146341000Y-75283105D01*
X146336819Y-75325562D01*
X146326227Y-75360477D01*
X146309022Y-75392665D01*
X146285873Y-75420873D01*
X146257665Y-75444022D01*
X146225477Y-75461227D01*
X146190562Y-75471819D01*
X146148105Y-75476000D01*
X144681895Y-75476000D01*
X144639438Y-75471819D01*
X144604523Y-75461227D01*
X144572335Y-75444022D01*
X144544127Y-75420873D01*
X144520978Y-75392665D01*
X144503773Y-75360477D01*
X144493181Y-75325562D01*
X144489000Y-75283105D01*
X144489000Y-74141895D01*
X144493181Y-74099438D01*
X144503773Y-74064523D01*
X144520978Y-74032335D01*
X144544127Y-74004127D01*
X144572335Y-73980978D01*
X144604523Y-73963773D01*
X144639438Y-73953181D01*
X144681895Y-73949000D01*
X146148105Y-73949000D01*
X146190562Y-73953181D01*
X146190562Y-73953181D01*
G37*
G36*
X117006821Y-72821313D02*
X117006824Y-72821314D01*
X117006825Y-72821314D01*
X117167239Y-72869975D01*
X117167241Y-72869976D01*
X117167244Y-72869977D01*
X117315078Y-72948995D01*
X117444659Y-73055341D01*
X117551005Y-73184922D01*
X117630023Y-73332756D01*
X117630024Y-73332759D01*
X117630025Y-73332761D01*
X117678686Y-73493175D01*
X117678687Y-73493179D01*
X117695117Y-73660000D01*
X117678687Y-73826821D01*
X117678686Y-73826824D01*
X117678686Y-73826825D01*
X117635439Y-73969392D01*
X117630023Y-73987244D01*
X117551005Y-74135078D01*
X117444659Y-74264659D01*
X117315078Y-74371005D01*
X117167244Y-74450023D01*
X117167241Y-74450024D01*
X117167239Y-74450025D01*
X117006825Y-74498686D01*
X117006824Y-74498686D01*
X117006821Y-74498687D01*
X116881804Y-74511000D01*
X116798196Y-74511000D01*
X116673179Y-74498687D01*
X116673176Y-74498686D01*
X116673175Y-74498686D01*
X116512761Y-74450025D01*
X116512759Y-74450024D01*
X116512756Y-74450023D01*
X116364922Y-74371005D01*
X116235341Y-74264659D01*
X116128995Y-74135078D01*
X116049977Y-73987244D01*
X116044562Y-73969392D01*
X116001314Y-73826825D01*
X116001314Y-73826824D01*
X116001313Y-73826821D01*
X115984883Y-73660000D01*
X116001313Y-73493179D01*
X116001314Y-73493175D01*
X116049975Y-73332761D01*
X116049976Y-73332759D01*
X116049977Y-73332756D01*
X116128995Y-73184922D01*
X116235341Y-73055341D01*
X116364922Y-72948995D01*
X116512756Y-72869977D01*
X116512759Y-72869976D01*
X116512761Y-72869975D01*
X116673175Y-72821314D01*
X116673176Y-72821314D01*
X116673179Y-72821313D01*
X116798196Y-72809000D01*
X116881804Y-72809000D01*
X117006821Y-72821313D01*
X117006821Y-72821313D01*
G37*
G36*
X111926821Y-72821313D02*
X111926824Y-72821314D01*
X111926825Y-72821314D01*
X112087239Y-72869975D01*
X112087241Y-72869976D01*
X112087244Y-72869977D01*
X112235078Y-72948995D01*
X112364659Y-73055341D01*
X112471005Y-73184922D01*
X112550023Y-73332756D01*
X112550024Y-73332759D01*
X112550025Y-73332761D01*
X112598686Y-73493175D01*
X112598687Y-73493179D01*
X112615117Y-73660000D01*
X112598687Y-73826821D01*
X112598686Y-73826824D01*
X112598686Y-73826825D01*
X112555439Y-73969392D01*
X112550023Y-73987244D01*
X112471005Y-74135078D01*
X112364659Y-74264659D01*
X112235078Y-74371005D01*
X112087244Y-74450023D01*
X112087241Y-74450024D01*
X112087239Y-74450025D01*
X111926825Y-74498686D01*
X111926824Y-74498686D01*
X111926821Y-74498687D01*
X111801804Y-74511000D01*
X111718196Y-74511000D01*
X111593179Y-74498687D01*
X111593176Y-74498686D01*
X111593175Y-74498686D01*
X111432761Y-74450025D01*
X111432759Y-74450024D01*
X111432756Y-74450023D01*
X111284922Y-74371005D01*
X111155341Y-74264659D01*
X111048995Y-74135078D01*
X110969977Y-73987244D01*
X110964562Y-73969392D01*
X110921314Y-73826825D01*
X110921314Y-73826824D01*
X110921313Y-73826821D01*
X110904883Y-73660000D01*
X110921313Y-73493179D01*
X110921314Y-73493175D01*
X110969975Y-73332761D01*
X110969976Y-73332759D01*
X110969977Y-73332756D01*
X111048995Y-73184922D01*
X111155341Y-73055341D01*
X111284922Y-72948995D01*
X111432756Y-72869977D01*
X111432759Y-72869976D01*
X111432761Y-72869975D01*
X111593175Y-72821314D01*
X111593176Y-72821314D01*
X111593179Y-72821313D01*
X111718196Y-72809000D01*
X111801804Y-72809000D01*
X111926821Y-72821313D01*
X111926821Y-72821313D01*
G37*
G36*
X114466821Y-72821313D02*
X114466824Y-72821314D01*
X114466825Y-72821314D01*
X114627239Y-72869975D01*
X114627241Y-72869976D01*
X114627244Y-72869977D01*
X114775078Y-72948995D01*
X114904659Y-73055341D01*
X115011005Y-73184922D01*
X115090023Y-73332756D01*
X115090024Y-73332759D01*
X115090025Y-73332761D01*
X115138686Y-73493175D01*
X115138687Y-73493179D01*
X115155117Y-73660000D01*
X115138687Y-73826821D01*
X115138686Y-73826824D01*
X115138686Y-73826825D01*
X115095439Y-73969392D01*
X115090023Y-73987244D01*
X115011005Y-74135078D01*
X114904659Y-74264659D01*
X114775078Y-74371005D01*
X114627244Y-74450023D01*
X114627241Y-74450024D01*
X114627239Y-74450025D01*
X114466825Y-74498686D01*
X114466824Y-74498686D01*
X114466821Y-74498687D01*
X114341804Y-74511000D01*
X114258196Y-74511000D01*
X114133179Y-74498687D01*
X114133176Y-74498686D01*
X114133175Y-74498686D01*
X113972761Y-74450025D01*
X113972759Y-74450024D01*
X113972756Y-74450023D01*
X113824922Y-74371005D01*
X113695341Y-74264659D01*
X113588995Y-74135078D01*
X113509977Y-73987244D01*
X113504562Y-73969392D01*
X113461314Y-73826825D01*
X113461314Y-73826824D01*
X113461313Y-73826821D01*
X113444883Y-73660000D01*
X113461313Y-73493179D01*
X113461314Y-73493175D01*
X113509975Y-73332761D01*
X113509976Y-73332759D01*
X113509977Y-73332756D01*
X113588995Y-73184922D01*
X113695341Y-73055341D01*
X113824922Y-72948995D01*
X113972756Y-72869977D01*
X113972759Y-72869976D01*
X113972761Y-72869975D01*
X114133175Y-72821314D01*
X114133176Y-72821314D01*
X114133179Y-72821313D01*
X114258196Y-72809000D01*
X114341804Y-72809000D01*
X114466821Y-72821313D01*
X114466821Y-72821313D01*
G37*
G36*
X119546821Y-72821313D02*
X119546824Y-72821314D01*
X119546825Y-72821314D01*
X119707239Y-72869975D01*
X119707241Y-72869976D01*
X119707244Y-72869977D01*
X119855078Y-72948995D01*
X119984659Y-73055341D01*
X120091005Y-73184922D01*
X120170023Y-73332756D01*
X120170024Y-73332759D01*
X120170025Y-73332761D01*
X120218686Y-73493175D01*
X120218687Y-73493179D01*
X120235117Y-73660000D01*
X120218687Y-73826821D01*
X120218686Y-73826824D01*
X120218686Y-73826825D01*
X120175439Y-73969392D01*
X120170023Y-73987244D01*
X120091005Y-74135078D01*
X119984659Y-74264659D01*
X119855078Y-74371005D01*
X119707244Y-74450023D01*
X119707241Y-74450024D01*
X119707239Y-74450025D01*
X119546825Y-74498686D01*
X119546824Y-74498686D01*
X119546821Y-74498687D01*
X119421804Y-74511000D01*
X119338196Y-74511000D01*
X119213179Y-74498687D01*
X119213176Y-74498686D01*
X119213175Y-74498686D01*
X119052761Y-74450025D01*
X119052759Y-74450024D01*
X119052756Y-74450023D01*
X118904922Y-74371005D01*
X118775341Y-74264659D01*
X118668995Y-74135078D01*
X118589977Y-73987244D01*
X118584562Y-73969392D01*
X118541314Y-73826825D01*
X118541314Y-73826824D01*
X118541313Y-73826821D01*
X118524883Y-73660000D01*
X118541313Y-73493179D01*
X118541314Y-73493175D01*
X118589975Y-73332761D01*
X118589976Y-73332759D01*
X118589977Y-73332756D01*
X118668995Y-73184922D01*
X118775341Y-73055341D01*
X118904922Y-72948995D01*
X119052756Y-72869977D01*
X119052759Y-72869976D01*
X119052761Y-72869975D01*
X119213175Y-72821314D01*
X119213176Y-72821314D01*
X119213179Y-72821313D01*
X119338196Y-72809000D01*
X119421804Y-72809000D01*
X119546821Y-72821313D01*
X119546821Y-72821313D01*
G37*
G36*
X134857142Y-72878242D02*
X135005102Y-72939530D01*
X135138258Y-73028502D01*
X135251498Y-73141742D01*
X135340470Y-73274898D01*
X135401758Y-73422858D01*
X135433000Y-73579925D01*
X135433000Y-73740075D01*
X135401758Y-73897142D01*
X135361576Y-73994148D01*
X135340471Y-74045100D01*
X135254329Y-74174022D01*
X135251498Y-74178258D01*
X135138258Y-74291498D01*
X135005102Y-74380470D01*
X135005101Y-74380471D01*
X135005100Y-74380471D01*
X134971583Y-74394354D01*
X134857142Y-74441758D01*
X134700075Y-74473000D01*
X134539925Y-74473000D01*
X134382858Y-74441758D01*
X134268417Y-74394354D01*
X134234900Y-74380471D01*
X134234899Y-74380471D01*
X134234898Y-74380470D01*
X134101742Y-74291498D01*
X133988502Y-74178258D01*
X133985672Y-74174022D01*
X133899529Y-74045100D01*
X133878424Y-73994148D01*
X133838242Y-73897142D01*
X133807000Y-73740075D01*
X133807000Y-73579925D01*
X133838242Y-73422858D01*
X133899530Y-73274898D01*
X133988502Y-73141742D01*
X134101742Y-73028502D01*
X134234898Y-72939530D01*
X134382858Y-72878242D01*
X134539925Y-72847000D01*
X134700075Y-72847000D01*
X134857142Y-72878242D01*
X134857142Y-72878242D01*
G37*
G36*
X101105562Y-72683181D02*
X101140477Y-72693773D01*
X101172665Y-72710978D01*
X101200873Y-72734127D01*
X101224022Y-72762335D01*
X101241227Y-72794523D01*
X101251819Y-72829438D01*
X101256000Y-72871895D01*
X101256000Y-74013105D01*
X101251819Y-74055562D01*
X101241227Y-74090477D01*
X101224022Y-74122665D01*
X101200873Y-74150873D01*
X101172665Y-74174022D01*
X101140477Y-74191227D01*
X101105562Y-74201819D01*
X101063105Y-74206000D01*
X99596895Y-74206000D01*
X99554438Y-74201819D01*
X99519523Y-74191227D01*
X99487335Y-74174022D01*
X99459127Y-74150873D01*
X99435978Y-74122665D01*
X99418773Y-74090477D01*
X99408181Y-74055562D01*
X99404000Y-74013105D01*
X99404000Y-72871895D01*
X99408181Y-72829438D01*
X99418773Y-72794523D01*
X99435978Y-72762335D01*
X99459127Y-72734127D01*
X99487335Y-72710978D01*
X99519523Y-72693773D01*
X99554438Y-72683181D01*
X99596895Y-72679000D01*
X101063105Y-72679000D01*
X101105562Y-72683181D01*
X101105562Y-72683181D01*
G37*
G36*
X140036000Y-72921000D02*
X137934000Y-72921000D01*
X137934000Y-69319000D01*
X140036000Y-69319000D01*
X140036000Y-72921000D01*
X140036000Y-72921000D01*
G37*
G36*
X142736000Y-72921000D02*
X140634000Y-72921000D01*
X140634000Y-69319000D01*
X142736000Y-69319000D01*
X142736000Y-72921000D01*
X142736000Y-72921000D01*
G37*
G36*
X134857142Y-70338242D02*
X135005102Y-70399530D01*
X135138258Y-70488502D01*
X135251498Y-70601742D01*
X135340470Y-70734898D01*
X135401758Y-70882858D01*
X135433000Y-71039925D01*
X135433000Y-71200075D01*
X135401758Y-71357142D01*
X135340470Y-71505102D01*
X135251498Y-71638258D01*
X135138258Y-71751498D01*
X135005102Y-71840470D01*
X134857142Y-71901758D01*
X134700075Y-71933000D01*
X134539925Y-71933000D01*
X134382858Y-71901758D01*
X134234898Y-71840470D01*
X134101742Y-71751498D01*
X133988502Y-71638258D01*
X133899530Y-71505102D01*
X133838242Y-71357142D01*
X133807000Y-71200075D01*
X133807000Y-71039925D01*
X133838242Y-70882858D01*
X133899530Y-70734898D01*
X133988502Y-70601742D01*
X134101742Y-70488502D01*
X134234898Y-70399530D01*
X134382858Y-70338242D01*
X134539925Y-70307000D01*
X134700075Y-70307000D01*
X134857142Y-70338242D01*
X134857142Y-70338242D01*
G37*
G36*
X115075562Y-69725681D02*
X115110477Y-69736273D01*
X115142665Y-69753478D01*
X115170873Y-69776627D01*
X115194022Y-69804835D01*
X115211227Y-69837023D01*
X115221819Y-69871938D01*
X115226000Y-69914395D01*
X115226000Y-71055605D01*
X115221819Y-71098062D01*
X115211227Y-71132977D01*
X115194022Y-71165165D01*
X115170873Y-71193373D01*
X115142665Y-71216522D01*
X115110477Y-71233727D01*
X115075562Y-71244319D01*
X115033105Y-71248500D01*
X113566895Y-71248500D01*
X113524438Y-71244319D01*
X113489523Y-71233727D01*
X113457335Y-71216522D01*
X113429127Y-71193373D01*
X113405978Y-71165165D01*
X113388773Y-71132977D01*
X113378181Y-71098062D01*
X113374000Y-71055605D01*
X113374000Y-69914395D01*
X113378181Y-69871938D01*
X113388773Y-69837023D01*
X113405978Y-69804835D01*
X113429127Y-69776627D01*
X113457335Y-69753478D01*
X113489523Y-69736273D01*
X113524438Y-69725681D01*
X113566895Y-69721500D01*
X115033105Y-69721500D01*
X115075562Y-69725681D01*
X115075562Y-69725681D01*
G37*
G36*
X115075562Y-66750681D02*
X115110477Y-66761273D01*
X115142665Y-66778478D01*
X115170873Y-66801627D01*
X115194022Y-66829835D01*
X115211227Y-66862023D01*
X115221819Y-66896938D01*
X115226000Y-66939395D01*
X115226000Y-68080605D01*
X115221819Y-68123062D01*
X115211227Y-68157977D01*
X115194022Y-68190165D01*
X115170873Y-68218373D01*
X115142665Y-68241522D01*
X115110477Y-68258727D01*
X115075562Y-68269319D01*
X115033105Y-68273500D01*
X113566895Y-68273500D01*
X113524438Y-68269319D01*
X113489523Y-68258727D01*
X113457335Y-68241522D01*
X113429127Y-68218373D01*
X113405978Y-68190165D01*
X113388773Y-68157977D01*
X113378181Y-68123062D01*
X113374000Y-68080605D01*
X113374000Y-66939395D01*
X113378181Y-66896938D01*
X113388773Y-66862023D01*
X113405978Y-66829835D01*
X113429127Y-66801627D01*
X113457335Y-66778478D01*
X113489523Y-66761273D01*
X113524438Y-66750681D01*
X113566895Y-66746500D01*
X115033105Y-66746500D01*
X115075562Y-66750681D01*
X115075562Y-66750681D01*
G37*
G36*
X103205734Y-63663232D02*
X103415202Y-63749996D01*
X103603723Y-63875962D01*
X103764038Y-64036277D01*
X103890004Y-64224798D01*
X103976768Y-64434266D01*
X104011402Y-64608383D01*
X104018515Y-64631832D01*
X104030066Y-64653443D01*
X104045612Y-64672385D01*
X104064554Y-64687931D01*
X104086165Y-64699482D01*
X104109614Y-64706595D01*
X104134000Y-64708997D01*
X104158386Y-64706595D01*
X104181835Y-64699482D01*
X104203446Y-64687931D01*
X104222388Y-64672385D01*
X104237934Y-64653443D01*
X104249485Y-64631832D01*
X104256598Y-64608383D01*
X104259000Y-64583997D01*
X104259000Y-63619000D01*
X106561000Y-63619000D01*
X106561000Y-65921000D01*
X104259000Y-65921000D01*
X104259000Y-64956003D01*
X104256598Y-64931617D01*
X104249485Y-64908168D01*
X104237934Y-64886557D01*
X104222388Y-64867615D01*
X104203446Y-64852069D01*
X104181835Y-64840518D01*
X104158386Y-64833405D01*
X104134000Y-64831003D01*
X104109614Y-64833405D01*
X104086165Y-64840518D01*
X104064554Y-64852069D01*
X104045612Y-64867615D01*
X104030066Y-64886557D01*
X104018515Y-64908168D01*
X104011402Y-64931617D01*
X103976768Y-65105734D01*
X103890004Y-65315202D01*
X103764038Y-65503723D01*
X103603723Y-65664038D01*
X103415202Y-65790004D01*
X103205734Y-65876768D01*
X102983365Y-65921000D01*
X102756635Y-65921000D01*
X102534266Y-65876768D01*
X102324798Y-65790004D01*
X102136277Y-65664038D01*
X101975962Y-65503723D01*
X101849996Y-65315202D01*
X101763232Y-65105734D01*
X101719000Y-64883365D01*
X101719000Y-64656635D01*
X101763232Y-64434266D01*
X101849996Y-64224798D01*
X101975962Y-64036277D01*
X102136277Y-63875962D01*
X102324798Y-63749996D01*
X102534266Y-63663232D01*
X102756635Y-63619000D01*
X102983365Y-63619000D01*
X103205734Y-63663232D01*
X103205734Y-63663232D01*
G37*
G36*
X152100734Y-63663232D02*
X152310202Y-63749996D01*
X152498723Y-63875962D01*
X152659038Y-64036277D01*
X152785004Y-64224798D01*
X152871768Y-64434266D01*
X152916000Y-64656635D01*
X152916000Y-64883365D01*
X152871768Y-65105734D01*
X152785004Y-65315202D01*
X152659038Y-65503723D01*
X152498723Y-65664038D01*
X152310202Y-65790004D01*
X152100734Y-65876768D01*
X151878365Y-65921000D01*
X151651635Y-65921000D01*
X151429266Y-65876768D01*
X151219798Y-65790004D01*
X151031277Y-65664038D01*
X150870962Y-65503723D01*
X150744996Y-65315202D01*
X150658232Y-65105734D01*
X150614000Y-64883365D01*
X150614000Y-64656635D01*
X150658232Y-64434266D01*
X150744996Y-64224798D01*
X150870962Y-64036277D01*
X151031277Y-63875962D01*
X151219798Y-63749996D01*
X151429266Y-63663232D01*
X151651635Y-63619000D01*
X151878365Y-63619000D01*
X152100734Y-63663232D01*
X152100734Y-63663232D01*
G37*
G36*
X94950734Y-63663232D02*
X95160202Y-63749996D01*
X95348723Y-63875962D01*
X95509038Y-64036277D01*
X95635004Y-64224798D01*
X95721768Y-64434266D01*
X95766000Y-64656635D01*
X95766000Y-64883365D01*
X95721768Y-65105734D01*
X95635004Y-65315202D01*
X95509038Y-65503723D01*
X95348723Y-65664038D01*
X95160202Y-65790004D01*
X94950734Y-65876768D01*
X94728365Y-65921000D01*
X94501635Y-65921000D01*
X94279266Y-65876768D01*
X94069798Y-65790004D01*
X93881277Y-65664038D01*
X93720962Y-65503723D01*
X93594996Y-65315202D01*
X93508232Y-65105734D01*
X93464000Y-64883365D01*
X93464000Y-64656635D01*
X93508232Y-64434266D01*
X93594996Y-64224798D01*
X93720962Y-64036277D01*
X93881277Y-63875962D01*
X94069798Y-63749996D01*
X94279266Y-63663232D01*
X94501635Y-63619000D01*
X94728365Y-63619000D01*
X94950734Y-63663232D01*
X94950734Y-63663232D01*
G37*
G36*
X105585305Y-61652096D02*
X105694680Y-61697400D01*
X105793118Y-61763175D01*
X105876825Y-61846882D01*
X105942600Y-61945320D01*
X105987904Y-62054695D01*
X106011000Y-62170806D01*
X106011000Y-62289194D01*
X105987904Y-62405305D01*
X105942600Y-62514680D01*
X105876825Y-62613118D01*
X105793118Y-62696825D01*
X105694680Y-62762600D01*
X105585305Y-62807904D01*
X105469194Y-62831000D01*
X105350806Y-62831000D01*
X105234695Y-62807904D01*
X105125320Y-62762600D01*
X105026882Y-62696825D01*
X104943175Y-62613118D01*
X104877400Y-62514680D01*
X104832096Y-62405305D01*
X104809000Y-62289194D01*
X104809000Y-62170806D01*
X104832096Y-62054695D01*
X104877400Y-61945320D01*
X104943175Y-61846882D01*
X105026882Y-61763175D01*
X105125320Y-61697400D01*
X105234695Y-61652096D01*
X105350806Y-61629000D01*
X105469194Y-61629000D01*
X105585305Y-61652096D01*
X105585305Y-61652096D01*
G37*
G36*
X103045305Y-61652096D02*
X103154680Y-61697400D01*
X103253118Y-61763175D01*
X103336825Y-61846882D01*
X103402600Y-61945320D01*
X103447904Y-62054695D01*
X103471000Y-62170806D01*
X103471000Y-62289194D01*
X103447904Y-62405305D01*
X103402600Y-62514680D01*
X103336825Y-62613118D01*
X103253118Y-62696825D01*
X103154680Y-62762600D01*
X103045305Y-62807904D01*
X102929194Y-62831000D01*
X102810806Y-62831000D01*
X102694695Y-62807904D01*
X102585320Y-62762600D01*
X102486882Y-62696825D01*
X102403175Y-62613118D01*
X102337400Y-62514680D01*
X102292096Y-62405305D01*
X102269000Y-62289194D01*
X102269000Y-62170806D01*
X102292096Y-62054695D01*
X102337400Y-61945320D01*
X102403175Y-61846882D01*
X102486882Y-61763175D01*
X102585320Y-61697400D01*
X102694695Y-61652096D01*
X102810806Y-61629000D01*
X102929194Y-61629000D01*
X103045305Y-61652096D01*
X103045305Y-61652096D01*
G37*
M02*
