M48
;DRILL file {KiCad (5.0.2)-1} date 10/26/2021 2:02:49 PM
;FORMAT={-:-/ absolute / metric / decimal}
FMAT,2
METRIC,TZ
T1C0.500
T2C0.762
T3C0.800
T4C1.000
T5C1.100
%
G90
G05
T1
X116.84Y-70.485
T2
X134.62Y-71.12
X134.62Y-73.66
X134.62Y-81.28
X134.62Y-83.82
X134.62Y-86.36
T3
X97.79Y-82.55
X97.79Y-87.63
X100.33Y-85.09
X111.76Y-73.66
X111.76Y-81.28
X114.3Y-73.66
X114.3Y-81.28
X116.84Y-73.66
X116.84Y-81.28
X119.38Y-73.66
X119.38Y-81.28
T4
X100.33Y-70.485
X109.22Y-93.98
X110.49Y-70.485
X114.3Y-64.135
X123.19Y-87.63
T5
X151.765Y-74.93
X151.765Y-77.47
X102.87Y-64.77
X105.41Y-64.77
X116.84Y-95.885
X119.38Y-95.885
X121.92Y-95.885
T0
M30
